<svg version="1.1" id="Layer_1" xmlns="http://www.w3.org/2000/svg" xmlns:xlink="http://www.w3.org/1999/xlink" x="0px" y="0px"
	 width="100%" viewBox="0 0 256 256" enable-background="new 0 0 256 256" xml:space="preserve">
<path fill="#2C2929" opacity="1.000000" stroke="none" 
	d="
M218.000000,257.000000 
	C159.312439,257.000000 100.624878,257.000000 41.425903,256.643341 
	C39.659126,255.577805 38.479462,254.642090 37.137039,254.194107 
	C17.552237,247.658493 8.332726,231.299850 8.186909,213.614624 
	C7.710870,155.878906 7.717604,98.134361 8.204193,40.398819 
	C8.332674,25.154081 14.607888,12.040499 28.480349,3.731814 
	C29.499893,3.121176 30.168329,1.924319 31.000000,1.000000 
	C96.354225,1.000000 161.708450,1.000000 227.564453,1.344687 
	C228.787811,2.335490 229.424103,3.127853 230.243698,3.605975 
	C244.272995,11.790146 250.627670,24.992498 250.771347,40.221645 
	C251.316925,98.048035 251.422455,155.887711 250.743454,213.711273 
	C250.523727,232.423050 241.341293,247.337128 222.150909,254.143387 
	C220.621887,254.685684 219.376968,256.028961 218.000000,257.000000 
M149.568283,63.723156 
	C148.191849,61.075993 143.122894,60.145702 139.916428,62.667068 
	C133.343414,67.835701 127.061905,73.383896 120.838844,78.974487 
	C120.245277,79.507736 120.909996,81.441628 120.990578,82.725281 
	C122.166122,82.479691 124.274208,82.435104 124.376984,81.958290 
	C125.860268,75.076630 132.692291,73.440353 136.708511,69.097572 
	C139.799377,65.755402 143.472900,64.199753 147.910309,66.624413 
	C142.336334,71.372322 136.833969,76.207672 131.170441,80.846260 
	C123.918701,86.785637 123.861519,86.719444 115.902916,81.941551 
	C115.687187,81.812027 115.570656,81.517258 115.420959,81.317047 
	C118.045654,72.797546 130.535110,65.286629 137.609543,60.906319 
	C138.626907,60.276394 139.693130,59.449535 140.229935,58.443417 
	C140.474121,57.985748 139.484055,56.183945 139.050522,56.182735 
	C137.890045,56.179497 136.523132,56.550003 135.600113,57.249516 
	C130.437973,61.161655 125.007484,64.831940 120.407654,69.339035 
	C116.587654,73.082024 113.788193,77.866547 110.313004,82.487030 
	C117.319466,86.436302 123.087761,89.620613 128.785690,92.926208 
	C131.872375,94.716919 134.442993,95.421539 137.366486,92.224541 
	C140.053177,89.286499 143.818314,89.107796 147.440247,90.788513 
	C151.423538,92.636894 154.262482,95.200935 154.087799,100.232872 
	C153.857971,106.853653 149.003403,110.903526 142.575119,109.187607 
	C133.213303,106.688644 122.708092,106.938240 115.995712,97.868980 
	C115.235336,96.841621 112.298065,97.425423 109.542732,97.192024 
	C108.472122,95.772064 106.825233,93.587791 104.738495,90.820152 
	C108.367256,90.311615 111.205429,89.913872 114.043610,89.516129 
	C105.549202,85.887962 104.341110,83.141846 107.748543,74.819283 
	C108.436089,73.139984 109.045174,71.422348 109.840172,69.795570 
	C110.320869,68.811920 110.895233,67.505730 111.762276,67.141640 
	C115.981781,65.369766 120.327858,63.901939 124.597542,62.245094 
	C125.715912,61.811111 126.807365,61.186077 127.707596,60.412014 
	C127.892746,60.252811 127.275864,58.497288 126.845177,58.412796 
	C125.664268,58.181118 124.282639,58.166664 123.167778,58.576157 
	C121.011627,59.368111 119.076942,60.860470 116.885788,61.441448 
	C110.235306,63.204823 106.076233,67.182404 104.668564,73.970711 
	C104.537300,74.603729 104.215225,75.212662 103.903015,75.790222 
	C101.531517,80.177322 99.919121,84.435814 105.155815,86.881645 
	C102.114754,90.570045 99.279671,94.157616 96.280350,97.602173 
	C93.585190,100.697418 90.969193,103.945633 87.844986,106.561012 
	C84.301781,109.527145 80.186470,111.800201 76.402672,114.490990 
	C71.354530,118.080872 66.175873,121.914215 64.779701,128.232071 
	C64.080383,131.396576 65.205887,135.125961 66.105537,138.436981 
	C67.014595,141.782593 68.648491,144.933624 69.994591,148.157471 
	C71.407532,151.541412 72.208916,155.484940 74.516449,158.083969 
	C76.049934,159.811172 76.565048,161.118332 77.114845,163.181610 
	C77.697807,165.369354 79.511581,168.399368 81.323296,168.835114 
	C84.645340,169.634094 88.869675,169.851395 91.810173,168.431519 
	C98.726311,165.091919 105.834419,165.221222 113.124046,164.834503 
	C116.860405,164.636292 120.696495,162.845032 124.079948,161.018692 
	C125.635284,160.179138 126.210373,157.523590 127.229965,155.691513 
	C126.747833,155.209381 126.265701,154.727249 125.783569,154.245117 
	C122.795586,161.420670 116.997421,162.734116 110.569740,162.403748 
	C104.173874,162.075027 98.168915,163.014420 92.224350,165.654999 
	C89.364853,166.925186 85.755547,166.933121 82.532242,166.739456 
	C81.320190,166.666626 79.924454,164.551636 79.243523,163.076355 
	C78.942215,162.423553 80.129372,160.191895 80.777443,160.131012 
	C87.068359,159.539932 92.575615,154.497314 99.418877,156.890381 
	C100.438499,157.246918 101.852364,156.476059 103.083839,156.226776 
	C103.061165,155.477493 103.038498,154.728210 103.015823,153.978928 
	C100.152382,153.797287 97.215927,153.135422 94.444183,153.556854 
	C91.059486,154.071472 87.865990,156.041275 84.491547,156.368484 
	C81.293648,156.678589 75.760376,156.615051 75.110405,155.081467 
	C73.094795,150.325745 71.629730,144.574600 72.466736,139.636169 
	C73.037865,136.266464 77.808578,133.599976 80.722580,130.639694 
	C82.120850,129.219208 84.197487,128.097931 84.873383,126.404648 
	C86.829765,121.503471 89.696426,118.126717 95.279404,117.780067 
	C95.355865,117.775322 95.406296,117.351112 95.467789,117.126640 
	C90.403954,115.367775 86.954758,116.711884 84.972672,121.173691 
	C81.556824,128.862991 74.641396,132.614044 66.326187,131.262650 
	C67.588776,125.352570 71.478539,121.354813 76.098160,117.942894 
	C83.384880,112.561134 90.729172,107.257324 97.980942,101.970207 
	C97.825470,102.632942 97.547852,103.808434 97.274048,104.984810 
	C95.297653,113.476547 98.475479,117.574089 107.061737,118.013832 
	C108.851326,118.105492 110.545570,119.458359 112.363594,119.783203 
	C113.843826,120.047691 116.284424,120.240883 116.853012,119.439552 
	C120.430000,114.398415 124.703339,114.400696 129.850189,116.541725 
	C132.715866,117.733795 135.841858,118.401695 138.912384,118.973824 
	C142.687408,119.677216 144.063141,121.728813 144.024902,125.512703 
	C143.890137,138.842926 144.067627,152.176819 143.863113,165.505264 
	C143.834549,167.366928 142.747269,169.593918 141.441116,170.987091 
	C136.315567,176.454071 131.331573,182.190582 125.498100,186.823578 
	C117.601364,193.095215 114.162094,200.536469 115.779243,210.496979 
	C116.077171,212.331970 114.927208,214.371460 115.051361,216.277100 
	C115.121674,217.356277 116.424309,218.355164 117.171913,219.390213 
	C118.022942,218.404663 119.596771,217.423141 119.602295,216.432861 
	C119.628922,211.654587 118.884155,206.855408 119.136620,202.102081 
	C119.260376,199.772110 120.427872,197.024048 122.033981,195.327744 
	C129.249222,187.707306 136.914062,180.512299 144.120285,172.883789 
	C145.709335,171.201614 146.858627,168.393021 146.901947,166.078629 
	C147.157547,152.418564 146.992142,138.751053 147.062454,125.086555 
	C147.073242,122.991402 148.565872,120.186188 147.667084,118.931320 
	C144.225571,114.126366 147.525208,112.625114 150.805054,110.645493 
	C159.262802,105.540619 158.394104,94.146461 150.394485,89.334274 
	C143.788406,85.360367 138.492371,87.501122 133.399124,91.842590 
	C131.434158,90.680504 129.619919,89.607559 127.291702,88.230637 
	C139.315887,78.148918 150.978302,68.304008 162.773163,58.620369 
	C163.622345,57.923176 165.650833,57.923023 166.767044,58.418579 
	C171.562958,60.547752 176.198349,63.035702 180.953461,65.262138 
	C181.871246,65.691872 183.122910,65.780342 184.103897,65.543343 
	C184.579910,65.428337 185.219757,64.031403 185.019562,63.507378 
	C184.661682,62.570530 183.879196,61.461296 183.001617,61.115047 
	C179.045883,59.554317 174.792419,58.635468 171.028000,56.730808 
	C166.167725,54.271671 161.911057,53.074493 158.055786,58.194557 
	C157.787796,58.550457 156.720383,58.304417 156.716019,57.815113 
	C155.844009,56.586720 155.144379,54.518250 154.065720,54.296921 
	C151.457321,53.761696 148.648941,53.878723 145.969940,54.174526 
	C144.953049,54.286812 143.744537,55.455109 143.269836,56.450413 
	C143.048874,56.913746 144.374649,58.859440 144.991013,58.855446 
	C148.727341,58.831238 152.461273,58.438202 156.667892,58.954628 
	C154.138535,60.758366 151.609161,62.562103 149.568283,63.723156 
M39.308880,152.267853 
	C38.455803,154.428726 37.400028,156.534668 36.795971,158.763046 
	C35.829716,162.327576 33.702396,163.744873 30.023430,164.075317 
	C21.481655,164.842499 20.971169,165.603287 20.969421,174.125427 
	C20.969250,174.958267 20.967995,175.791122 20.968716,176.623962 
	C20.975157,184.056091 21.790073,185.279739 29.314661,185.848099 
	C33.776684,186.185135 35.841148,188.233383 37.823406,192.069672 
	C40.561104,197.367935 39.620419,201.447174 35.976070,205.559998 
	C32.963036,208.960342 32.938320,211.851135 36.599205,215.277756 
	C44.875961,223.024811 44.703869,223.208664 54.605549,217.296143 
	C59.601048,214.313217 69.319862,219.070175 69.999374,224.830780 
	C71.126755,234.388290 71.810875,234.998703 81.388077,234.946457 
	C82.386749,234.941010 83.386520,234.831360 84.383408,234.858261 
	C88.233551,234.962158 91.178818,233.613678 91.144829,229.358017 
	C91.082062,221.499329 95.443092,217.749603 102.479919,216.097610 
	C103.240021,215.919174 103.921326,215.405060 104.815765,214.958481 
	C104.353821,212.938950 103.927261,211.074112 103.719330,210.165085 
	C100.494637,208.536041 98.023529,207.287689 95.359848,205.942047 
	C81.687187,211.586777 67.741127,209.508652 57.619919,200.129578 
	C44.524509,187.994385 42.735966,170.863419 53.293373,153.506546 
	C56.984119,150.068161 60.674870,146.629761 64.060410,143.475708 
	C62.416351,140.231552 60.733448,136.910767 59.367321,134.215042 
	C57.493362,133.650970 55.632027,133.519684 54.286983,132.618134 
	C43.237640,125.212090 46.414112,124.086563 35.636219,134.821533 
	C35.400837,135.055984 35.186947,135.313965 34.938160,135.532684 
	C32.347397,137.810211 32.338158,140.169861 34.318233,142.951172 
	C36.315521,145.756668 37.981812,148.797791 39.308880,152.267853 
M150.928726,47.942680 
	C167.001495,47.028736 180.550446,52.368607 191.686081,64.063202 
	C192.612473,65.036095 194.871964,65.149857 196.457397,65.015877 
	C204.476746,64.338173 209.661911,70.115021 208.048889,78.011864 
	C207.852417,78.973793 208.004120,80.382690 208.594116,81.068703 
	C212.549454,85.667732 216.667221,90.127060 220.732315,94.631699 
	C221.181366,94.722343 221.630417,94.812981 222.079483,94.903625 
	C219.607620,85.938988 226.403625,83.818817 231.398834,80.369682 
	C232.492157,79.614738 233.581665,78.853745 234.688522,78.119011 
	C237.391052,76.325081 238.411896,73.994659 237.098099,70.860497 
	C235.044800,65.962135 233.109955,61.011421 230.941910,56.164753 
	C229.262360,52.410145 226.201813,51.302338 222.281708,52.314766 
	C218.589462,53.268341 214.904907,54.261715 211.185257,55.096226 
	C207.396652,55.946209 194.251450,45.016148 194.478043,41.165077 
	C194.583862,39.366901 195.210938,37.604263 195.529358,35.812653 
	C196.079269,32.718498 196.666367,29.626280 197.064575,26.511097 
	C197.497543,23.124020 196.194992,20.856403 192.762421,19.642319 
	C188.385925,18.094360 184.090302,16.282663 179.862640,14.358704 
	C175.480911,12.364624 172.519684,13.989573 170.229721,17.678400 
	C168.565506,20.359215 166.909119,23.053398 165.425781,25.835730 
	C163.780838,28.921139 161.572144,30.296473 157.873871,30.147917 
	C153.602554,29.976347 149.297409,30.647594 144.539917,30.479689 
	C142.706146,28.157917 140.686646,25.958017 139.069778,23.493927 
	C130.708969,10.752150 131.238678,13.580733 121.018890,17.875809 
	C108.469223,23.150068 106.820244,22.573006 110.955421,36.611286 
	C111.095268,37.086044 111.020782,37.633152 111.199905,38.085705 
	C113.041290,42.737888 111.029945,45.828445 108.129723,49.647186 
	C102.425362,57.158173 96.152657,58.555420 87.523323,55.533848 
	C81.095207,53.283028 78.476013,55.184711 75.985878,61.477436 
	C74.944992,64.107803 73.932175,66.749710 72.857361,69.366142 
	C69.509346,77.516228 70.010399,78.654701 77.543808,83.456039 
	C82.592773,86.673950 89.864433,88.288666 87.682693,97.557114 
	C94.326401,90.697311 98.843758,83.820641 101.194077,75.587845 
	C102.011772,72.723610 103.054039,69.813560 104.606087,67.302986 
	C105.893913,65.219810 107.773392,62.988419 109.925949,62.049038 
	C116.700493,59.092625 123.686523,56.598255 130.668182,54.145645 
	C137.061432,51.899734 143.555420,49.940525 150.928726,47.942680 
M171.946716,153.499496 
	C171.946716,159.955811 171.946716,166.412125 171.946716,173.189209 
	C169.990524,172.913620 168.618790,172.720367 167.551056,172.569962 
	C167.551056,142.795105 167.551056,113.537491 167.551056,84.400467 
	C175.082855,82.792488 182.900787,85.944321 189.724579,81.681351 
	C183.352600,80.987320 177.053574,80.984314 170.754547,80.988152 
	C164.316422,80.992073 164.077484,81.214874 164.075089,87.786705 
	C164.065430,114.285469 164.071075,140.784225 164.071075,167.282990 
	C164.071075,169.079010 164.071075,170.875031 164.071075,172.673645 
	C162.236526,172.943329 160.824356,173.150925 158.760880,173.454254 
	C161.475403,181.585739 155.408127,185.251373 150.960831,189.747955 
	C146.507858,194.250275 141.851456,198.564102 137.606888,203.252640 
	C136.217529,204.787323 135.329315,207.180359 135.094650,209.279510 
	C134.400879,215.485352 134.108978,221.738327 133.766724,227.978745 
	C133.717621,228.873962 133.990097,230.155624 134.599365,230.616669 
	C135.236176,231.098557 136.730377,231.192261 137.357559,230.752945 
	C138.136459,230.207336 138.844284,228.931091 138.823578,227.987061 
	C138.751587,224.707672 138.522095,221.410187 138.041397,218.165665 
	C136.898163,210.449265 139.336121,204.524826 145.567444,199.601288 
	C150.238251,195.910797 154.131363,191.236038 158.871063,186.499496 
	C159.279724,195.563431 158.367172,195.044540 166.781723,195.009079 
	C169.948181,194.995743 173.117432,194.927673 176.280533,195.032303 
	C179.697510,195.145340 183.012756,195.304306 182.044434,190.655518 
	C185.027252,190.015823 187.513153,189.482712 189.999054,188.949600 
	C189.891785,188.394867 189.784500,187.840149 189.677231,187.285431 
	C187.118591,187.088165 184.559952,186.890900 181.784988,186.676941 
	C181.923477,184.920685 182.032837,183.533691 182.123260,182.386856 
	C190.177139,182.386856 197.808456,182.419205 205.438828,182.348557 
	C206.467880,182.339035 207.745773,182.079224 208.430359,181.430679 
	C208.894791,180.990677 208.895615,179.215485 208.441833,178.842270 
	C207.684387,178.219345 206.384903,177.982697 205.334702,178.032043 
	C197.594208,178.395767 189.858948,178.870697 182.101807,179.311783 
	C181.621826,176.806702 181.283646,175.041656 180.917435,173.130402 
	C179.011292,173.023926 177.223862,172.924088 175.501358,172.827866 
	C175.303879,172.390015 175.054855,172.096100 175.055573,171.802811 
	C175.117691,146.150681 175.214508,120.498611 175.228043,94.846497 
	C175.228638,93.708977 174.626953,92.478889 173.995911,91.489609 
	C173.807068,91.193558 172.058365,91.335770 171.898422,91.681526 
	C171.401413,92.756035 171.081741,94.036011 171.137024,95.215477 
	C171.235611,97.319069 171.900223,99.406456 171.908585,101.502296 
	C171.976425,118.501228 171.946701,135.500549 171.946716,153.499496 
M147.474030,177.967926 
	C141.113297,184.319199 134.730255,190.648468 128.414581,197.044235 
	C127.405678,198.065933 126.000389,199.365540 125.965561,200.570969 
	C125.742836,208.279984 125.852020,215.998596 125.852020,223.761139 
	C126.909660,223.761139 128.317032,223.761139 129.712051,223.761139 
	C129.444046,217.977631 129.351013,212.427032 128.878357,206.908936 
	C128.510941,202.619354 129.792648,199.495300 133.042511,196.484070 
	C140.242325,189.812973 146.892822,182.552246 154.007431,175.784409 
	C156.869766,173.061584 158.130280,170.286514 158.064240,166.260101 
	C157.823990,151.613037 157.939087,136.959549 157.993912,122.308739 
	C158.005463,119.221947 158.329361,116.136330 158.539413,112.534348 
	C156.490753,112.647171 154.966248,112.731125 153.294861,112.823174 
	C153.888168,116.859337 154.789261,120.331749 154.840363,123.816620 
	C155.020981,136.134125 154.471771,148.477600 155.079254,160.767731 
	C155.430267,167.869156 153.835281,173.376862 147.474030,177.967926 
M223.000580,114.663467 
	C223.001007,121.829758 223.151917,129.000427 222.943405,136.160629 
	C222.825134,140.221405 225.080276,140.656723 228.015320,139.937653 
	C229.324677,139.616852 230.982529,138.604568 231.485168,137.465973 
	C233.828705,132.157394 236.082397,126.774857 237.791367,121.240639 
	C238.326492,119.507721 237.749634,116.362213 236.487061,115.342384 
	C232.584396,112.190094 228.105850,109.750763 223.001648,106.492439 
	C223.001648,109.766823 223.001648,111.744949 223.000580,114.663467 
M201.642044,92.416077 
	C207.984360,89.300873 208.340836,86.683731 203.165894,79.880432 
	C205.999847,76.785973 207.588043,72.849380 203.341995,70.303146 
	C201.084000,68.949081 196.611984,69.036133 194.342102,70.430573 
	C189.885788,73.168190 191.979263,77.185532 193.638687,80.487709 
	C192.478317,83.203369 190.901245,86.410599 191.748169,88.734390 
	C193.099899,92.443382 196.906860,93.540237 201.642044,92.416077 
M221.287903,155.853516 
	C218.632782,155.853516 215.977646,155.853516 213.015305,155.853516 
	C213.015305,140.638962 212.992264,125.540878 213.066010,110.443268 
	C213.071060,109.410858 213.950912,108.409973 214.150497,107.343262 
	C214.333939,106.362961 214.480072,105.109634 214.019318,104.359360 
	C213.653351,103.763412 212.025558,103.257858 211.529831,103.583267 
	C210.746567,104.097427 210.004257,105.339241 210.000229,106.276329 
	C209.929672,122.721291 209.893478,139.167984 210.146500,155.609741 
	C210.166763,156.927002 212.144379,158.576920 213.593842,159.402985 
	C214.928131,160.163452 216.797577,159.930313 218.394653,160.295227 
	C222.130585,161.148849 222.910934,159.540909 221.287903,155.853516 
M107.106979,213.319016 
	C111.155785,214.945465 110.984337,212.378952 111.046738,209.586548 
	C111.202423,202.618912 108.299980,195.091339 115.771263,189.571671 
	C122.034775,184.944305 127.000900,179.217896 124.988159,170.386597 
	C124.953728,170.235519 125.077171,170.048523 125.042892,169.897339 
	C124.687904,168.331650 124.315613,166.769882 123.948135,165.207031 
	C122.899879,165.466873 121.096466,165.512192 120.949875,166.028198 
	C120.564011,167.386444 120.594086,169.039764 121.002480,170.413895 
	C122.279350,174.710220 122.898483,178.703156 118.962418,182.126617 
	C116.210373,184.520233 113.641556,187.133942 111.095413,189.751038 
	C109.743797,191.140335 107.729912,192.644470 107.542740,194.272400 
	C106.837379,200.407425 106.759071,206.614548 107.106979,213.319016 
M147.215195,229.854095 
	C147.215195,222.907944 147.215195,215.961792 147.215195,209.011230 
	C155.449661,209.011230 163.340820,209.091095 171.227051,208.930405 
	C172.499710,208.904465 173.750534,207.807846 175.011459,207.206161 
	C174.111328,206.282471 173.210403,204.559280 172.311203,204.560181 
	C164.359085,204.568222 156.408340,204.962875 148.454880,205.068573 
	C144.968674,205.114899 143.904221,206.693787 143.949265,210.025208 
	C144.043488,216.992645 143.786804,223.964325 143.738190,230.934708 
	C143.729965,232.112274 143.787933,233.430603 144.321579,234.407303 
	C144.557281,234.838715 146.759430,234.852768 146.862946,234.586853 
	C147.338318,233.365631 147.387604,231.978577 147.215195,229.854095 
M174.374130,212.844803 
	C166.967789,212.844803 159.561462,212.844803 151.585999,212.844803 
	C151.585999,223.208694 151.585999,232.878891 151.585999,242.661316 
	C152.863419,242.661316 154.387619,242.661316 155.488617,242.661316 
	C155.488617,233.659317 155.488617,225.007370 155.488617,216.457672 
	C165.542435,216.457672 175.643234,216.457672 185.748260,216.457672 
	C185.748260,214.956253 185.748260,213.544098 185.748260,211.854324 
	C182.093063,212.202057 178.714890,212.523422 174.374130,212.844803 
M200.980331,125.552452 
	C198.560181,125.745392 196.138565,125.922043 193.720688,126.140205 
	C192.885712,126.215553 192.060043,126.394241 191.230133,126.525726 
	C191.399521,127.394035 191.398560,128.931564 191.765213,129.024887 
	C194.719818,129.776917 197.979706,131.197906 200.671524,130.522400 
	C202.821732,129.982803 205.223495,127.057076 205.904007,124.721474 
	C207.563599,119.025551 204.908096,116.660255 196.664230,115.450706 
	C195.870010,111.199303 198.446152,110.949364 201.649307,110.948250 
	C202.744583,110.947876 203.839478,109.788452 204.934555,109.158592 
	C203.793640,108.540436 202.693726,107.505493 201.503540,107.388443 
	C198.788498,107.121429 196.029236,107.304123 193.376129,107.304123 
	C192.861526,110.259056 192.376266,112.362938 192.151474,114.494293 
	C191.803513,117.793472 191.745041,120.377129 196.756653,119.227722 
	C200.653488,118.333984 202.679871,120.690147 200.980331,125.552452 
M192.964767,164.711105 
	C192.224945,165.819321 191.485123,166.927536 190.066986,169.051865 
	C195.581223,169.051865 199.831467,169.152435 204.068665,168.962341 
	C204.863480,168.926682 205.606186,167.729202 206.372940,167.067856 
	C205.499451,166.528854 204.675278,165.663239 203.741699,165.522324 
	C202.064072,165.269089 200.320770,165.450851 198.651718,165.450851 
	C200.588623,162.519897 202.886795,159.811249 204.294388,156.699707 
	C205.751663,153.478394 206.071579,149.797043 202.885696,147.139786 
	C199.857422,144.613998 196.417572,144.780182 193.209915,146.827606 
	C192.384750,147.354309 192.132370,148.778351 191.616867,149.790161 
	C192.589508,149.893646 193.560150,150.053650 194.535248,150.088303 
	C196.325439,150.151932 199.252441,149.522751 199.672211,150.291992 
	C200.527420,151.859177 200.773987,154.579880 199.935165,156.076416 
	C198.269531,159.048035 195.699020,161.512466 192.964767,164.711105 
M178.727875,99.607468 
	C178.727875,112.324326 178.727875,125.041191 178.727875,137.990509 
	C180.103683,137.859024 181.509277,137.724686 182.484406,137.631500 
	C182.484406,120.410828 182.484406,103.615654 182.484406,86.614853 
	C181.177200,86.614853 179.774490,86.614853 178.009567,86.614853 
	C178.259598,90.801102 178.493790,94.721985 178.727875,99.607468 
M112.617462,179.900803 
	C113.728760,175.765640 114.840057,171.630463 116.031387,167.197479 
	C113.615387,167.197479 112.191177,167.197479 110.496910,167.197479 
	C110.496910,170.794235 111.500397,174.618271 110.229774,177.405670 
	C108.807053,180.526764 105.270485,182.657837 102.760651,185.320465 
	C101.424843,186.737595 99.408829,188.290253 99.269943,189.915878 
	C98.822052,195.158279 99.103020,200.462967 99.103020,205.814041 
	C100.532631,205.814041 101.978340,205.814041 103.896614,205.814041 
	C103.739952,204.169113 103.921028,202.636765 103.418701,201.376892 
	C100.945213,195.173172 101.641632,190.858337 106.081528,186.412476 
	C108.079926,184.411407 110.069267,182.401306 112.617462,179.900803 
M160.267014,78.504471 
	C163.132187,77.540909 165.948456,75.982697 168.873077,75.742279 
	C174.322617,75.294319 179.839478,75.729164 185.318222,75.525154 
	C186.571411,75.478485 187.783554,74.329597 189.014587,73.687996 
	C187.843506,73.168533 186.682770,72.229172 185.499603,72.200012 
	C179.352005,72.048508 173.175430,71.816788 167.058044,72.272423 
	C164.363708,72.473099 161.546417,73.865135 159.210342,75.374611 
	C155.608292,77.702126 152.372086,80.595802 148.980682,83.249321 
	C148.693695,82.945816 148.406693,82.642319 148.119690,82.338814 
	C148.119690,83.774712 148.119690,85.210602 148.119690,87.182785 
	C149.871017,86.918594 151.823929,87.206245 152.801270,86.363068 
	C155.333008,84.178856 157.434952,81.496445 160.267014,78.504471 
M195.933807,185.380493 
	C194.873184,186.040039 193.812576,186.699585 192.531433,187.496277 
	C200.280563,191.963150 195.502625,198.321198 197.088348,203.377090 
	C196.039398,203.677841 195.518738,203.712219 195.134964,203.959259 
	C194.089722,204.632050 193.102356,205.394760 192.092056,206.121857 
	C193.100525,206.695541 194.076111,207.679718 195.123825,207.763687 
	C197.936310,207.989044 200.785889,207.930695 203.606735,207.757385 
	C204.394608,207.708969 205.543701,207.010315 205.769653,206.350540 
	C205.960556,205.793091 205.083527,204.843353 204.629654,204.097351 
	C203.767639,202.680389 202.197891,201.326111 202.108948,199.873169 
	C201.796265,194.765060 201.987503,189.626114 201.987503,183.827209 
	C199.757370,184.340149 198.215378,184.694824 195.933807,185.380493 
M135.997070,144.502533 
	C135.619400,151.910065 135.129715,159.315460 134.987442,166.727509 
	C134.966614,167.812531 136.599670,168.929321 137.467453,170.031387 
	C138.399109,168.889999 139.852386,167.855881 140.115372,166.576981 
	C140.377106,165.304199 139.066956,163.778564 139.093277,162.375931 
	C139.317032,150.458710 139.717896,138.544907 139.963181,126.627945 
	C139.983978,125.618317 139.498108,124.353287 138.798019,123.662590 
	C138.354126,123.224632 136.716385,123.276253 136.258316,123.741982 
	C135.571106,124.440681 135.110077,125.706833 135.143478,126.712059 
	C135.329590,132.312820 135.693771,137.907639 135.997070,144.502533 
M173.199615,69.987137 
	C173.577179,68.787018 174.610794,67.260483 174.207092,66.449074 
	C173.076263,64.176231 162.882278,62.825623 160.749619,64.438385 
	C154.183746,69.403648 147.586517,74.331711 141.170578,79.484764 
	C140.478073,80.040947 140.891098,81.973602 140.791290,83.267754 
	C142.099594,83.199638 143.852127,83.650925 144.641373,82.975914 
	C148.629654,79.564972 152.169250,75.617691 156.233414,72.309639 
	C165.104553,65.088905 161.851196,64.653793 173.199615,69.987137 
M132.226913,154.497360 
	C132.563934,148.445633 132.929901,142.395264 133.215118,136.341095 
	C133.276855,135.030365 133.362396,133.545242 132.808212,132.462173 
	C132.566086,131.988968 130.171692,131.873611 129.758759,132.393402 
	C129.009766,133.336258 128.769165,134.870773 128.739517,136.167984 
	C128.468872,148.014572 128.258484,159.862930 128.132278,171.711853 
	C128.119904,172.874023 128.557770,174.214951 129.241241,175.135345 
	C129.570679,175.578979 131.289398,175.607574 131.788071,175.162262 
	C132.509583,174.518005 133.074692,173.261871 133.045959,172.286224 
	C132.880966,166.685486 132.520844,161.090500 132.226913,154.497360 
M217.843811,151.780518 
	C219.137421,150.799438 221.566254,149.780487 221.535004,148.843582 
	C221.368851,143.861267 220.117508,138.898697 220.126266,133.930847 
	C220.139526,126.412987 220.958786,118.899063 221.214859,111.375946 
	C221.246429,110.448273 219.925659,109.474564 219.231552,108.522186 
	C218.398010,109.634064 216.851395,110.739616 216.841476,111.858795 
	C216.744431,122.797112 216.893341,133.737823 216.999084,144.677567 
	C217.020401,146.883026 217.154495,149.087402 217.843811,151.780518 
M158.194931,234.284332 
	C158.160400,234.780151 157.995956,235.309830 158.114777,235.765671 
	C158.532425,237.367752 158.951538,238.988556 159.637329,240.479309 
	C159.731430,240.683884 162.057968,240.324112 162.115860,240.002991 
	C162.373032,238.576233 162.158478,237.068497 162.154617,235.589920 
	C162.143127,231.186554 162.150497,226.783142 162.150497,221.699432 
	C164.765594,222.312210 166.917267,222.973099 169.117706,223.260284 
	C170.093262,223.387589 171.392456,223.019379 172.121994,222.387802 
	C172.657364,221.924301 172.931396,220.372604 172.558731,219.830322 
	C171.995636,219.010910 170.767273,218.163910 169.822678,218.165100 
	C158.208038,218.179764 158.208160,218.219162 158.203705,230.356308 
	C158.203339,231.352097 158.200897,232.347885 158.194931,234.284332 
M185.365082,199.925339 
	C188.096008,199.093979 191.972214,201.927933 194.272659,196.607437 
	C180.464691,196.607437 167.379929,196.607437 154.212860,196.607437 
	C154.212860,197.777863 154.212860,199.191696 154.212860,199.925339 
	C164.437943,199.925339 174.419876,199.925339 185.365082,199.925339 
M187.433167,103.938179 
	C186.680145,105.217903 185.633896,106.421349 185.274323,107.803436 
	C185.023132,108.769005 185.954681,109.981995 185.941360,111.079407 
	C185.847290,118.830093 185.539597,126.580170 185.591629,134.328491 
	C185.599442,135.494476 187.126907,136.650269 187.951401,137.810791 
	C188.676117,136.880692 190.019348,135.957657 190.030090,135.019379 
	C190.139984,125.418465 190.070755,115.814445 189.914185,106.213547 
	C189.902145,105.475182 188.848694,104.753807 187.433167,103.938179 
M199.417221,101.993462 
	C204.832092,101.661377 210.245712,101.306702 215.662308,101.005806 
	C218.835785,100.829529 220.143066,99.365967 218.223053,96.584778 
	C215.991028,93.351608 213.335831,90.410591 210.864288,87.342773 
	C210.036255,88.068649 209.208221,88.794525 208.380203,89.520401 
	C210.397018,92.242058 212.413849,94.963715 214.879074,98.290474 
	C208.191315,97.905678 202.195435,97.560692 196.199554,97.215706 
	C195.872391,97.619942 195.545212,98.024178 195.218048,98.428413 
	C196.315231,99.618500 197.412399,100.808586 199.417221,101.993462 
M185.392059,168.961380 
	C182.580124,169.389359 181.999481,167.880280 182.150970,165.454239 
	C182.491058,160.007904 182.836151,154.554367 182.859146,149.102402 
	C182.863480,148.075363 181.383240,147.042053 180.588058,146.011658 
	C179.758774,147.020401 178.206467,148.038605 178.219528,149.036316 
	C178.294891,154.791611 178.868622,160.538788 179.015610,166.295303 
	C179.115540,170.208862 180.093521,172.652130 184.748260,172.077682 
	C187.542999,171.732788 190.415054,172.014328 194.040756,172.014328 
	C190.849701,170.763763 188.556244,169.864944 185.392059,168.961380 
M189.365540,140.243454 
	C186.562607,140.224213 183.747650,140.045013 180.961929,140.254578 
	C179.609390,140.356323 178.311569,141.185806 176.988968,141.685822 
	C177.918610,142.752930 178.752441,144.615479 179.795486,144.741104 
	C183.209625,145.152344 186.711060,145.093323 190.154099,144.855515 
	C191.194138,144.783676 192.153412,143.542191 193.149673,142.836472 
	C192.145355,141.895096 191.141037,140.953705 189.365540,140.243454 
M186.891296,147.034363 
	C186.134430,147.765732 184.761032,148.466492 184.722946,149.233551 
	C184.510513,153.512482 184.515045,157.811722 184.686356,162.094391 
	C184.737946,163.384033 185.560547,164.642838 186.029953,165.915756 
	C187.361969,165.323914 188.693970,164.732056 190.025986,164.140198 
	C189.490005,163.954773 188.954041,163.769348 188.418060,163.583908 
	C188.180557,158.159683 187.943054,152.735458 186.891296,147.034363 
M104.926323,167.857834 
	C101.704681,166.268173 100.741814,167.700821 100.865112,170.804596 
	C100.949661,172.932877 100.642685,175.096832 100.923195,177.189560 
	C101.088432,178.422302 102.059372,179.547043 102.667946,180.720367 
	C103.600975,179.963242 105.258347,179.276154 105.339539,178.436646 
	C105.662041,175.102127 105.492317,171.720016 104.926323,167.857834 
M203.876160,140.181580 
	C204.517899,141.670929 205.159637,143.160263 205.801361,144.649612 
	C206.073334,144.496445 206.345306,144.343292 206.617279,144.190140 
	C206.617279,139.867676 206.617279,135.545227 206.617279,130.827164 
	C202.172607,132.966125 204.586609,136.592819 203.876160,140.181580 
M194.986816,137.543274 
	C194.986816,139.302704 194.986816,141.062134 194.986816,143.367828 
	C197.015564,142.824615 198.452194,142.439941 199.819870,142.073730 
	C199.084625,139.745880 198.624161,138.038269 197.998978,136.393250 
	C197.555511,135.226318 196.889648,134.143906 196.323059,133.023773 
	C195.877777,134.228622 195.432495,135.433456 194.986816,137.543274 
M210.133606,172.810837 
	C211.510178,172.484406 212.886749,172.157974 214.263306,171.831543 
	C214.021591,170.814743 213.779877,169.797943 213.538177,168.781128 
	C210.864471,169.506012 208.190781,170.230881 205.517075,170.955765 
	C205.596313,171.255875 205.675568,171.556000 205.754807,171.856110 
	C207.039902,172.008926 208.324997,172.161743 210.133606,172.810837 
z"/>
<path fill="#000000" opacity="1.000000" stroke="none" 
	d="
M30.531342,1.000000 
	C30.168329,1.924319 29.499893,3.121176 28.480349,3.731814 
	C14.607888,12.040499 8.332674,25.154081 8.204193,40.398819 
	C7.717604,98.134361 7.710870,155.878906 8.186909,213.614624 
	C8.332726,231.299850 17.552237,247.658493 37.137039,254.194107 
	C38.479462,254.642090 39.659126,255.577805 40.957245,256.643341 
	C27.684578,257.000000 14.369155,257.000000 1.052293,257.000000 
	C1.050854,171.666656 1.050854,86.333321 1.050854,1.000000 
	C10.755367,1.000000 20.409027,1.000000 30.531342,1.000000 
z"/>
<path fill="#000000" opacity="1.000000" stroke="none" 
	d="
M218.468658,257.000000 
	C219.376968,256.028961 220.621887,254.685684 222.150909,254.143387 
	C241.341293,247.337128 250.523727,232.423050 250.743454,213.711273 
	C251.422455,155.887711 251.316925,98.048035 250.771347,40.221645 
	C250.627670,24.992498 244.272995,11.790146 230.243698,3.605975 
	C229.424103,3.127853 228.787811,2.335490 228.033112,1.344687 
	C237.653610,1.000000 247.307205,1.000000 256.942932,1.000000 
	C256.942932,86.333351 256.942932,171.666687 256.942932,257.000000 
	C244.236328,257.000000 231.586823,257.000000 218.468658,257.000000 
z"/>
<path fill="#93403B" opacity="1.000000" stroke="none" 
	d="
M145.006943,30.952883 
	C149.297409,30.647594 153.602554,29.976347 157.873871,30.147917 
	C161.572144,30.296473 163.780838,28.921139 165.425781,25.835730 
	C166.909119,23.053398 168.565506,20.359215 170.229721,17.678400 
	C172.519684,13.989573 175.480911,12.364624 179.862640,14.358704 
	C184.090302,16.282663 188.385925,18.094360 192.762421,19.642319 
	C196.194992,20.856403 197.497543,23.124020 197.064575,26.511097 
	C196.666367,29.626280 196.079269,32.718498 195.529358,35.812653 
	C195.210938,37.604263 194.583862,39.366901 194.478043,41.165077 
	C194.251450,45.016148 207.396652,55.946209 211.185257,55.096226 
	C214.904907,54.261715 218.589462,53.268341 222.281708,52.314766 
	C226.201813,51.302338 229.262360,52.410145 230.941910,56.164753 
	C233.109955,61.011421 235.044800,65.962135 237.098099,70.860497 
	C238.411896,73.994659 237.391052,76.325081 234.688522,78.119011 
	C233.581665,78.853745 232.492157,79.614738 231.398834,80.369682 
	C226.403625,83.818817 219.607620,85.938988 222.079483,94.903625 
	C221.630417,94.812981 221.181366,94.722343 220.732315,94.631699 
	C216.667221,90.127060 212.549454,85.667732 208.594116,81.068703 
	C208.004120,80.382690 207.852417,78.973793 208.048889,78.011864 
	C209.661911,70.115021 204.476746,64.338173 196.457397,65.015877 
	C194.871964,65.149857 192.612473,65.036095 191.686081,64.063202 
	C180.550446,52.368607 167.001495,47.028736 150.402283,47.547291 
	C148.252884,41.752228 146.629913,36.352554 145.006943,30.952883 
z"/>
<path fill="#8C3F3B" opacity="1.000000" stroke="none" 
	d="
M144.773438,30.716286 
	C146.629913,36.352554 148.252884,41.752228 149.940430,47.503441 
	C143.555420,49.940525 137.061432,51.899734 130.668182,54.145645 
	C123.686523,56.598255 116.700493,59.092625 109.925949,62.049038 
	C107.773392,62.988419 105.893913,65.219810 104.606087,67.302986 
	C103.054039,69.813560 102.011772,72.723610 101.194077,75.587845 
	C98.843758,83.820641 94.326401,90.697311 87.682693,97.557114 
	C89.864433,88.288666 82.592773,86.673950 77.543808,83.456039 
	C70.010399,78.654701 69.509346,77.516228 72.857361,69.366142 
	C73.932175,66.749710 74.944992,64.107803 75.985878,61.477436 
	C78.476013,55.184711 81.095207,53.283028 87.523323,55.533848 
	C96.152657,58.555420 102.425362,57.158173 108.129723,49.647186 
	C111.029945,45.828445 113.041290,42.737888 111.199905,38.085705 
	C111.020782,37.633152 111.095268,37.086044 110.955421,36.611286 
	C106.820244,22.573006 108.469223,23.150068 121.018890,17.875809 
	C131.238678,13.580733 130.708969,10.752150 139.069778,23.493927 
	C140.686646,25.958017 142.706146,28.157917 144.773438,30.716286 
z"/>
<path fill="#888585" opacity="1.000000" stroke="none" 
	d="
M52.801914,153.981995 
	C42.735966,170.863419 44.524509,187.994385 57.619919,200.129578 
	C67.741127,209.508652 81.687187,211.586777 95.359848,205.942047 
	C98.023529,207.287689 100.494637,208.536041 103.719330,210.165085 
	C103.927261,211.074112 104.353821,212.938950 104.815765,214.958481 
	C103.921326,215.405060 103.240021,215.919174 102.479919,216.097610 
	C95.443092,217.749603 91.082062,221.499329 91.144829,229.358017 
	C91.178818,233.613678 88.233551,234.962158 84.383408,234.858261 
	C83.386520,234.831360 82.386749,234.941010 81.388077,234.946457 
	C71.810875,234.998703 71.126755,234.388290 69.999374,224.830780 
	C69.319862,219.070175 59.601048,214.313217 54.605549,217.296143 
	C44.703869,223.208664 44.875961,223.024811 36.599205,215.277756 
	C32.938320,211.851135 32.963036,208.960342 35.976070,205.559998 
	C39.620419,201.447174 40.561104,197.367935 37.823406,192.069672 
	C35.841148,188.233383 33.776684,186.185135 29.314661,185.848099 
	C21.790073,185.279739 20.975157,184.056091 20.968716,176.623962 
	C20.967995,175.791122 20.969250,174.958267 20.969421,174.125427 
	C20.971169,165.603287 21.481655,164.842499 30.023430,164.075317 
	C33.702396,163.744873 35.829716,162.327576 36.795971,158.763046 
	C37.400028,156.534668 38.455803,154.428726 39.865044,152.296570 
	C44.548111,152.877518 48.675014,153.429749 52.801914,153.981995 
z"/>
<path fill="#F2F2F2" opacity="1.000000" stroke="none" 
	d="
M156.024734,58.338295 
	C156.720383,58.304417 157.787796,58.550457 158.055786,58.194557 
	C161.911057,53.074493 166.167725,54.271671 171.028000,56.730808 
	C174.792419,58.635468 179.045883,59.554317 183.001617,61.115047 
	C183.879196,61.461296 184.661682,62.570530 185.019562,63.507378 
	C185.219757,64.031403 184.579910,65.428337 184.103897,65.543343 
	C183.122910,65.780342 181.871246,65.691872 180.953461,65.262138 
	C176.198349,63.035702 171.562958,60.547752 166.767044,58.418579 
	C165.650833,57.923023 163.622345,57.923176 162.773163,58.620369 
	C150.978302,68.304008 139.315887,78.148918 127.291702,88.230637 
	C129.619919,89.607559 131.434158,90.680504 133.399124,91.842590 
	C138.492371,87.501122 143.788406,85.360367 150.394485,89.334274 
	C158.394104,94.146461 159.262802,105.540619 150.805054,110.645493 
	C147.525208,112.625114 144.225571,114.126366 147.667084,118.931320 
	C148.565872,120.186188 147.073242,122.991402 147.062454,125.086555 
	C146.992142,138.751053 147.157547,152.418564 146.901947,166.078629 
	C146.858627,168.393021 145.709335,171.201614 144.120285,172.883789 
	C136.914062,180.512299 129.249222,187.707306 122.033981,195.327744 
	C120.427872,197.024048 119.260376,199.772110 119.136620,202.102081 
	C118.884155,206.855408 119.628922,211.654587 119.602295,216.432861 
	C119.596771,217.423141 118.022942,218.404663 117.171906,219.390213 
	C116.424309,218.355164 115.121674,217.356277 115.051361,216.277100 
	C114.927208,214.371460 116.077171,212.331970 115.779243,210.496979 
	C114.162094,200.536469 117.601364,193.095215 125.498100,186.823578 
	C131.331573,182.190582 136.315567,176.454071 141.441116,170.987091 
	C142.747269,169.593918 143.834549,167.366928 143.863113,165.505264 
	C144.067627,152.176819 143.890137,138.842926 144.024902,125.512703 
	C144.063141,121.728813 142.687408,119.677216 138.912384,118.973824 
	C135.841858,118.401695 132.715866,117.733795 129.850189,116.541725 
	C124.703339,114.400696 120.430000,114.398415 116.853012,119.439552 
	C116.284424,120.240883 113.843826,120.047691 112.363594,119.783203 
	C110.545570,119.458359 108.851326,118.105492 107.061737,118.013832 
	C98.475479,117.574089 95.297653,113.476547 97.274048,104.984810 
	C97.547852,103.808434 97.825470,102.632942 97.980942,101.970207 
	C90.729172,107.257324 83.384880,112.561134 76.098160,117.942894 
	C71.478539,121.354813 67.588776,125.352570 66.326187,131.262650 
	C74.641396,132.614044 81.556824,128.862991 84.972672,121.173691 
	C86.954758,116.711884 90.403954,115.367775 95.467789,117.126640 
	C95.406296,117.351112 95.355865,117.775322 95.279404,117.780067 
	C89.696426,118.126717 86.829765,121.503471 84.873383,126.404648 
	C84.197487,128.097931 82.120850,129.219208 80.722580,130.639694 
	C77.808578,133.599976 73.037865,136.266464 72.466736,139.636169 
	C71.629730,144.574600 73.094795,150.325745 75.110405,155.081467 
	C75.760376,156.615051 81.293648,156.678589 84.491547,156.368484 
	C87.865990,156.041275 91.059486,154.071472 94.444183,153.556854 
	C97.215927,153.135422 100.152382,153.797287 103.015823,153.978928 
	C103.038498,154.728210 103.061165,155.477493 103.083839,156.226776 
	C101.852364,156.476059 100.438499,157.246918 99.418877,156.890381 
	C92.575615,154.497314 87.068359,159.539932 80.777443,160.131012 
	C80.129372,160.191895 78.942215,162.423553 79.243523,163.076355 
	C79.924454,164.551636 81.320190,166.666626 82.532242,166.739456 
	C85.755547,166.933121 89.364853,166.925186 92.224350,165.654999 
	C98.168915,163.014420 104.173874,162.075027 110.569740,162.403748 
	C116.997421,162.734116 122.795586,161.420670 125.783569,154.245117 
	C126.265701,154.727249 126.747833,155.209381 127.229965,155.691513 
	C126.210373,157.523590 125.635284,160.179138 124.079948,161.018692 
	C120.696495,162.845032 116.860405,164.636292 113.124046,164.834503 
	C105.834419,165.221222 98.726311,165.091919 91.810173,168.431519 
	C88.869675,169.851395 84.645340,169.634094 81.323296,168.835114 
	C79.511581,168.399368 77.697807,165.369354 77.114845,163.181610 
	C76.565048,161.118332 76.049934,159.811172 74.516449,158.083969 
	C72.208916,155.484940 71.407532,151.541412 69.994591,148.157471 
	C68.648491,144.933624 67.014595,141.782593 66.105537,138.436981 
	C65.205887,135.125961 64.080383,131.396576 64.779701,128.232071 
	C66.175873,121.914215 71.354530,118.080872 76.402672,114.490990 
	C80.186470,111.800201 84.301781,109.527145 87.844986,106.561012 
	C90.969193,103.945633 93.585190,100.697418 96.280350,97.602173 
	C99.279671,94.157616 102.114754,90.570045 105.155815,86.881645 
	C99.919121,84.435814 101.531517,80.177322 103.903015,75.790222 
	C104.215225,75.212662 104.537300,74.603729 104.668564,73.970711 
	C106.076233,67.182404 110.235306,63.204823 116.885788,61.441448 
	C119.076942,60.860470 121.011627,59.368111 123.167778,58.576157 
	C124.282639,58.166664 125.664268,58.181118 126.845177,58.412796 
	C127.275864,58.497288 127.892746,60.252811 127.707596,60.412014 
	C126.807365,61.186077 125.715912,61.811111 124.597542,62.245094 
	C120.327858,63.901939 115.981781,65.369766 111.762276,67.141640 
	C110.895233,67.505730 110.320869,68.811920 109.840172,69.795570 
	C109.045174,71.422348 108.436089,73.139984 107.748543,74.819283 
	C104.341110,83.141846 105.549202,85.887962 114.043610,89.516129 
	C111.205429,89.913872 108.367256,90.311615 104.738495,90.820152 
	C106.825233,93.587791 108.472122,95.772064 109.542732,97.192024 
	C112.298065,97.425423 115.235336,96.841621 115.995712,97.868980 
	C122.708092,106.938240 133.213303,106.688644 142.575119,109.187607 
	C149.003403,110.903526 153.857971,106.853653 154.087799,100.232872 
	C154.262482,95.200935 151.423538,92.636894 147.440247,90.788513 
	C143.818314,89.107796 140.053177,89.286499 137.366486,92.224541 
	C134.442993,95.421539 131.872375,94.716919 128.785690,92.926208 
	C123.087761,89.620613 117.319466,86.436302 110.313004,82.487030 
	C113.788193,77.866547 116.587654,73.082024 120.407654,69.339035 
	C125.007484,64.831940 130.437973,61.161655 135.600113,57.249516 
	C136.523132,56.550003 137.890045,56.179497 139.050522,56.182735 
	C139.484055,56.183945 140.474121,57.985748 140.229935,58.443417 
	C139.693130,59.449535 138.626907,60.276394 137.609543,60.906319 
	C130.535110,65.286629 118.045654,72.797546 115.420959,81.317047 
	C115.570656,81.517258 115.687187,81.812027 115.902916,81.941551 
	C123.861519,86.719444 123.918701,86.785637 131.170441,80.846260 
	C136.833969,76.207672 142.336334,71.372322 148.028412,66.101746 
	C148.457626,65.174667 148.768723,64.770256 149.079803,64.365845 
	C151.609161,62.562103 154.138535,60.758366 156.415405,58.600773 
	C156.162903,58.246918 156.024734,58.338295 156.024734,58.338295 
M99.117393,105.289772 
	C99.318993,107.951492 99.520592,110.613213 99.918373,113.952942 
	C103.693611,116.657440 105.456985,116.263412 106.368233,112.112358 
	C106.843727,109.946312 106.910583,107.486237 106.361130,105.366570 
	C105.949242,103.777580 104.258629,102.520065 103.137329,101.114967 
	C101.971977,102.295036 100.806625,103.475105 99.117393,105.289772 
M125.768127,107.955292 
	C124.988358,107.732529 124.208595,107.509766 122.078247,106.901161 
	C123.286392,109.429710 123.730232,112.199593 124.948524,112.597328 
	C130.993332,114.570808 137.242386,115.918655 143.338501,117.466362 
	C145.117081,113.432961 143.273636,111.888245 140.057632,111.145706 
	C135.564743,110.108345 131.074066,109.061409 125.768127,107.955292 
M109.394524,115.246948 
	C113.895943,114.659325 115.834465,111.803986 115.004593,107.657013 
	C114.359917,104.435501 112.183372,102.091049 108.551590,101.982590 
	C108.551590,106.771698 108.551590,110.949554 109.394524,115.246948 
M117.162621,112.299118 
	C115.805710,114.011597 114.448799,115.724068 113.091881,117.436546 
	C113.447510,117.753838 113.803131,118.071129 114.158752,118.388420 
	C116.967941,116.641533 119.942078,114.961411 120.408691,110.961250 
	C121.073555,105.261429 118.785095,101.752380 111.551758,98.832924 
	C115.252785,103.338608 119.493454,106.392006 117.162621,112.299118 
M105.484200,95.947472 
	C104.571175,94.924767 103.658157,93.902061 101.813812,91.836151 
	C101.490265,94.606987 100.672966,96.821304 101.280067,97.327583 
	C102.930206,98.703697 105.183380,99.356674 107.197533,100.296280 
	C107.367546,99.990593 107.537560,99.684898 107.707573,99.379204 
	C107.129951,98.411797 106.552330,97.444382 105.484200,95.947472 
z"/>
<path fill="#F7F7F7" opacity="1.000000" stroke="none" 
	d="
M171.946716,152.999634 
	C171.946701,135.500549 171.976425,118.501228 171.908585,101.502296 
	C171.900223,99.406456 171.235611,97.319069 171.137024,95.215477 
	C171.081741,94.036011 171.401413,92.756035 171.898422,91.681526 
	C172.058365,91.335770 173.807068,91.193558 173.995911,91.489609 
	C174.626953,92.478889 175.228638,93.708977 175.228043,94.846497 
	C175.214508,120.498611 175.117691,146.150681 175.055573,171.802811 
	C175.054855,172.096100 175.303879,172.390015 175.501358,172.827866 
	C177.223862,172.924088 179.011292,173.023926 180.917435,173.130402 
	C181.283646,175.041656 181.621826,176.806702 182.101807,179.311783 
	C189.858948,178.870697 197.594208,178.395767 205.334702,178.032043 
	C206.384903,177.982697 207.684387,178.219345 208.441833,178.842270 
	C208.895615,179.215485 208.894791,180.990677 208.430359,181.430679 
	C207.745773,182.079224 206.467880,182.339035 205.438828,182.348557 
	C197.808456,182.419205 190.177139,182.386856 182.123260,182.386856 
	C182.032837,183.533691 181.923477,184.920685 181.784988,186.676941 
	C184.559952,186.890900 187.118591,187.088165 189.677231,187.285431 
	C189.784500,187.840149 189.891785,188.394867 189.999054,188.949600 
	C187.513153,189.482712 185.027252,190.015823 182.044434,190.655518 
	C183.012756,195.304306 179.697510,195.145340 176.280533,195.032303 
	C173.117432,194.927673 169.948181,194.995743 166.781723,195.009079 
	C158.367172,195.044540 159.279724,195.563431 158.871063,186.499496 
	C154.131363,191.236038 150.238251,195.910797 145.567444,199.601288 
	C139.336121,204.524826 136.898163,210.449265 138.041397,218.165665 
	C138.522095,221.410187 138.751587,224.707672 138.823578,227.987061 
	C138.844284,228.931091 138.136459,230.207336 137.357559,230.752945 
	C136.730377,231.192261 135.236176,231.098557 134.599365,230.616669 
	C133.990097,230.155624 133.717621,228.873962 133.766724,227.978745 
	C134.108978,221.738327 134.400879,215.485352 135.094650,209.279510 
	C135.329315,207.180359 136.217529,204.787323 137.606888,203.252640 
	C141.851456,198.564102 146.507858,194.250275 150.960831,189.747955 
	C155.408127,185.251373 161.475403,181.585739 158.760880,173.454254 
	C160.824356,173.150925 162.236526,172.943329 164.071075,172.673645 
	C164.071075,170.875031 164.071075,169.079010 164.071075,167.282990 
	C164.071075,140.784225 164.065430,114.285469 164.075089,87.786705 
	C164.077484,81.214874 164.316422,80.992073 170.754547,80.988152 
	C177.053574,80.984314 183.352600,80.987320 189.724579,81.681351 
	C182.900787,85.944321 175.082855,82.792488 167.551056,84.400467 
	C167.551056,113.537491 167.551056,142.795105 167.551056,172.569962 
	C168.618790,172.720367 169.990524,172.913620 171.946716,173.189209 
	C171.946716,166.412125 171.946716,159.955811 171.946716,152.999634 
M162.938065,191.718796 
	C168.138794,191.718796 173.339539,191.718796 178.841431,191.718796 
	C178.602798,186.275787 178.387360,181.361938 178.169006,176.381561 
	C172.741974,176.381561 167.556870,176.381561 162.295029,176.381561 
	C162.295029,181.520844 162.295029,186.279999 162.938065,191.718796 
z"/>
<path fill="#8B8787" opacity="1.000000" stroke="none" 
	d="
M53.047646,153.744263 
	C48.675014,153.429749 44.548111,152.877518 40.107162,152.030487 
	C37.981812,148.797791 36.315521,145.756668 34.318233,142.951172 
	C32.338158,140.169861 32.347397,137.810211 34.938160,135.532684 
	C35.186947,135.313965 35.400837,135.055984 35.636219,134.821533 
	C46.414112,124.086563 43.237640,125.212090 54.286983,132.618134 
	C55.632027,133.519684 57.493362,133.650970 59.367321,134.215042 
	C60.733448,136.910767 62.416351,140.231552 64.060410,143.475708 
	C60.674870,146.629761 56.984119,150.068161 53.047646,153.744263 
z"/>
<path fill="#F9F9F9" opacity="1.000000" stroke="none" 
	d="
M147.724304,177.716431 
	C153.835281,173.376862 155.430267,167.869156 155.079254,160.767731 
	C154.471771,148.477600 155.020981,136.134125 154.840363,123.816620 
	C154.789261,120.331749 153.888168,116.859337 153.294861,112.823174 
	C154.966248,112.731125 156.490753,112.647171 158.539413,112.534348 
	C158.329361,116.136330 158.005463,119.221947 157.993912,122.308739 
	C157.939087,136.959549 157.823990,151.613037 158.064240,166.260101 
	C158.130280,170.286514 156.869766,173.061584 154.007431,175.784409 
	C146.892822,182.552246 140.242325,189.812973 133.042511,196.484070 
	C129.792648,199.495300 128.510941,202.619354 128.878357,206.908936 
	C129.351013,212.427032 129.444046,217.977631 129.712051,223.761139 
	C128.317032,223.761139 126.909660,223.761139 125.852020,223.761139 
	C125.852020,215.998596 125.742836,208.279984 125.965561,200.570969 
	C126.000389,199.365540 127.405678,198.065933 128.414581,197.044235 
	C134.730255,190.648468 141.113297,184.319199 147.724304,177.716431 
z"/>
<path fill="#973F3B" opacity="1.000000" stroke="none" 
	d="
M223.001114,114.193268 
	C223.001648,111.744949 223.001648,109.766823 223.001648,106.492439 
	C228.105850,109.750763 232.584396,112.190094 236.487061,115.342384 
	C237.749634,116.362213 238.326492,119.507721 237.791367,121.240639 
	C236.082397,126.774857 233.828705,132.157394 231.485168,137.465973 
	C230.982529,138.604568 229.324677,139.616852 228.015320,139.937653 
	C225.080276,140.656723 222.825134,140.221405 222.943405,136.160629 
	C223.151917,129.000427 223.001007,121.829758 223.001114,114.193268 
z"/>
<path fill="#DA312D" opacity="1.000000" stroke="none" 
	d="
M201.281921,92.583328 
	C196.906860,93.540237 193.099899,92.443382 191.748169,88.734390 
	C190.901245,86.410599 192.478317,83.203369 193.638687,80.487709 
	C191.979263,77.185532 189.885788,73.168190 194.342102,70.430573 
	C196.611984,69.036133 201.084000,68.949081 203.341995,70.303146 
	C207.588043,72.849380 205.999847,76.785973 203.165894,79.880432 
	C208.340836,86.683731 207.984360,89.300873 201.281921,92.583328 
M197.163269,89.281998 
	C198.764572,88.712234 200.696579,88.484459 201.808807,87.408928 
	C202.271042,86.961945 201.373520,84.238174 200.378372,83.407547 
	C199.443542,82.627289 197.565033,82.977631 196.101746,82.830498 
	C196.231033,84.856682 196.360336,86.882858 197.163269,89.281998 
M200.396500,78.679031 
	C200.913925,77.677650 201.936035,76.615768 201.825027,75.689728 
	C201.675781,74.444756 200.915985,72.836716 199.916962,72.273033 
	C199.167694,71.850288 196.881485,72.543221 196.611282,73.249176 
	C196.184570,74.363930 196.620728,76.025864 197.185715,77.223053 
	C197.532089,77.956993 198.800293,78.255898 200.396500,78.679031 
z"/>
<path fill="#F9F9F9" opacity="1.000000" stroke="none" 
	d="
M221.578278,156.075348 
	C222.910934,159.540909 222.130585,161.148849 218.394653,160.295227 
	C216.797577,159.930313 214.928131,160.163452 213.593842,159.402985 
	C212.144379,158.576920 210.166763,156.927002 210.146500,155.609741 
	C209.893478,139.167984 209.929672,122.721291 210.000229,106.276329 
	C210.004257,105.339241 210.746567,104.097427 211.529831,103.583267 
	C212.025558,103.257858 213.653351,103.763412 214.019318,104.359360 
	C214.480072,105.109634 214.333939,106.362961 214.150497,107.343262 
	C213.950912,108.409973 213.071060,109.410858 213.066010,110.443268 
	C212.992264,125.540878 213.015305,140.638962 213.015305,155.853516 
	C215.977646,155.853516 218.632782,155.853516 221.578278,156.075348 
z"/>
<path fill="#E8E8E8" opacity="1.000000" stroke="none" 
	d="
M106.776474,213.056839 
	C106.759071,206.614548 106.837379,200.407425 107.542740,194.272400 
	C107.729912,192.644470 109.743797,191.140335 111.095413,189.751038 
	C113.641556,187.133942 116.210373,184.520233 118.962418,182.126617 
	C122.898483,178.703156 122.279350,174.710220 121.002480,170.413895 
	C120.594086,169.039764 120.564011,167.386444 120.949875,166.028198 
	C121.096466,165.512192 122.899879,165.466873 123.948135,165.207031 
	C124.315613,166.769882 124.687904,168.331650 125.042892,169.897339 
	C125.077171,170.048523 124.953728,170.235519 124.988159,170.386597 
	C127.000900,179.217896 122.034775,184.944305 115.771263,189.571671 
	C108.299980,195.091339 111.202423,202.618912 111.046738,209.586548 
	C110.984337,212.378952 111.155785,214.945465 106.776474,213.056839 
z"/>
<path fill="#F4F3F3" opacity="1.000000" stroke="none" 
	d="
M147.402496,230.252563 
	C147.387604,231.978577 147.338318,233.365631 146.862946,234.586853 
	C146.759430,234.852768 144.557281,234.838715 144.321579,234.407303 
	C143.787933,233.430603 143.729965,232.112274 143.738190,230.934708 
	C143.786804,223.964325 144.043488,216.992645 143.949265,210.025208 
	C143.904221,206.693787 144.968674,205.114899 148.454880,205.068573 
	C156.408340,204.962875 164.359085,204.568222 172.311203,204.560181 
	C173.210403,204.559280 174.111328,206.282471 175.011459,207.206161 
	C173.750534,207.807846 172.499710,208.904465 171.227051,208.930405 
	C163.340820,209.091095 155.449661,209.011230 147.215195,209.011230 
	C147.215195,215.961792 147.215195,222.907944 147.402496,230.252563 
z"/>
<path fill="#FBFBFB" opacity="1.000000" stroke="none" 
	d="
M174.855438,212.844803 
	C178.714890,212.523422 182.093063,212.202057 185.748260,211.854324 
	C185.748260,213.544098 185.748260,214.956253 185.748260,216.457672 
	C175.643234,216.457672 165.542435,216.457672 155.488617,216.457672 
	C155.488617,225.007370 155.488617,233.659317 155.488617,242.661316 
	C154.387619,242.661316 152.863419,242.661316 151.585999,242.661316 
	C151.585999,232.878891 151.585999,223.208694 151.585999,212.844803 
	C159.561462,212.844803 166.967789,212.844803 174.855438,212.844803 
z"/>
<path fill="#D5312D" opacity="1.000000" stroke="none" 
	d="
M201.216965,125.231178 
	C202.679871,120.690147 200.653488,118.333984 196.756653,119.227722 
	C191.745041,120.377129 191.803513,117.793472 192.151474,114.494293 
	C192.376266,112.362938 192.861526,110.259056 193.376129,107.304123 
	C196.029236,107.304123 198.788498,107.121429 201.503540,107.388443 
	C202.693726,107.505493 203.793640,108.540436 204.934555,109.158585 
	C203.839478,109.788452 202.744583,110.947876 201.649307,110.948250 
	C198.446152,110.949364 195.870010,111.199303 196.663055,115.449387 
	C204.908096,116.660255 207.563599,119.025551 205.904007,124.721474 
	C205.223495,127.057076 202.821732,129.982803 200.671524,130.522400 
	C197.979706,131.197906 194.719818,129.776917 191.765213,129.024887 
	C191.398560,128.931564 191.399521,127.394035 191.230133,126.525726 
	C192.060043,126.394241 192.885712,126.215553 193.720688,126.140205 
	C196.138565,125.922043 198.560181,125.745392 201.216965,125.231178 
z"/>
<path fill="#D8312D" opacity="1.000000" stroke="none" 
	d="
M193.233612,164.448792 
	C195.699020,161.512466 198.269531,159.048035 199.935165,156.076416 
	C200.773987,154.579880 200.527420,151.859177 199.672211,150.291992 
	C199.252441,149.522751 196.325439,150.151932 194.535248,150.088303 
	C193.560150,150.053650 192.589508,149.893646 191.616852,149.790161 
	C192.132370,148.778351 192.384750,147.354309 193.209915,146.827606 
	C196.417572,144.780182 199.857422,144.613998 202.885696,147.139786 
	C206.071579,149.797043 205.751663,153.478394 204.294388,156.699707 
	C202.886795,159.811249 200.588623,162.519897 198.651718,165.450851 
	C200.320770,165.450851 202.064072,165.269089 203.741699,165.522324 
	C204.675278,165.663239 205.499451,166.528854 206.372940,167.067856 
	C205.606186,167.729202 204.863480,168.926682 204.068665,168.962341 
	C199.831467,169.152435 195.581223,169.051865 190.066986,169.051865 
	C191.485123,166.927536 192.224945,165.819321 193.233612,164.448792 
z"/>
<path fill="#F4F3F3" opacity="1.000000" stroke="none" 
	d="
M178.727921,99.125168 
	C178.493790,94.721985 178.259598,90.801102 178.009567,86.614853 
	C179.774490,86.614853 181.177200,86.614853 182.484406,86.614853 
	C182.484406,103.615654 182.484406,120.410828 182.484406,137.631500 
	C181.509277,137.724686 180.103683,137.859024 178.727875,137.990509 
	C178.727875,125.041191 178.727875,112.324326 178.727921,99.125168 
z"/>
<path fill="#F4F4F4" opacity="1.000000" stroke="none" 
	d="
M112.340088,180.148041 
	C110.069267,182.401306 108.079926,184.411407 106.081528,186.412476 
	C101.641632,190.858337 100.945213,195.173172 103.418701,201.376892 
	C103.921028,202.636765 103.739952,204.169113 103.896614,205.814041 
	C101.978340,205.814041 100.532631,205.814041 99.103020,205.814041 
	C99.103020,200.462967 98.822052,195.158279 99.269943,189.915878 
	C99.408829,188.290253 101.424843,186.737595 102.760651,185.320465 
	C105.270485,182.657837 108.807053,180.526764 110.229774,177.405670 
	C111.500397,174.618271 110.496910,170.794235 110.496910,167.197479 
	C112.191177,167.197479 113.615387,167.197479 116.031387,167.197479 
	C114.840057,171.630463 113.728760,175.765640 112.340088,180.148041 
z"/>
<path fill="#E2E2E2" opacity="1.000000" stroke="none" 
	d="
M159.987732,78.758698 
	C157.434952,81.496445 155.333008,84.178856 152.801270,86.363068 
	C151.823929,87.206245 149.871017,86.918594 148.119690,87.182785 
	C148.119690,85.210602 148.119690,83.774712 148.119690,82.338814 
	C148.406693,82.642319 148.693695,82.945816 148.980682,83.249321 
	C152.372086,80.595802 155.608292,77.702126 159.210342,75.374611 
	C161.546417,73.865135 164.363708,72.473099 167.058044,72.272423 
	C173.175430,71.816788 179.352005,72.048508 185.499603,72.200012 
	C186.682770,72.229172 187.843506,73.168533 189.014587,73.687996 
	C187.783554,74.329597 186.571411,75.478485 185.318222,75.525154 
	C179.839478,75.729164 174.322617,75.294319 168.873077,75.742279 
	C165.948456,75.982697 163.132187,77.540909 159.987732,78.758698 
z"/>
<path fill="#D8312D" opacity="1.000000" stroke="none" 
	d="
M196.303589,185.214996 
	C198.215378,184.694824 199.757370,184.340149 201.987503,183.827209 
	C201.987503,189.626114 201.796265,194.765060 202.108948,199.873169 
	C202.197891,201.326111 203.767639,202.680389 204.629654,204.097351 
	C205.083527,204.843353 205.960556,205.793091 205.769653,206.350540 
	C205.543701,207.010315 204.394608,207.708969 203.606735,207.757385 
	C200.785889,207.930695 197.936310,207.989044 195.123825,207.763687 
	C194.076111,207.679718 193.100525,206.695541 192.092056,206.121857 
	C193.102356,205.394760 194.089722,204.632050 195.134964,203.959259 
	C195.518738,203.712219 196.039398,203.677841 197.088348,203.377090 
	C195.502625,198.321198 200.280563,191.963150 192.531433,187.496277 
	C193.812576,186.699585 194.873184,186.040039 196.303589,185.214996 
z"/>
<path fill="#FCFCFC" opacity="1.000000" stroke="none" 
	d="
M135.997070,144.003510 
	C135.693771,137.907639 135.329590,132.312820 135.143478,126.712059 
	C135.110077,125.706833 135.571106,124.440681 136.258316,123.741982 
	C136.716385,123.276253 138.354126,123.224632 138.798019,123.662590 
	C139.498108,124.353287 139.983978,125.618317 139.963181,126.627945 
	C139.717896,138.544907 139.317032,150.458710 139.093277,162.375931 
	C139.066956,163.778564 140.377106,165.304199 140.115372,166.576981 
	C139.852386,167.855881 138.399109,168.889999 137.467468,170.031403 
	C136.599670,168.929321 134.966614,167.812531 134.987442,166.727509 
	C135.129715,159.315460 135.619400,151.910065 135.997070,144.003510 
z"/>
<path fill="#F6F6F6" opacity="1.000000" stroke="none" 
	d="
M172.805862,70.039574 
	C161.851196,64.653793 165.104553,65.088905 156.233414,72.309639 
	C152.169250,75.617691 148.629654,79.564972 144.641373,82.975914 
	C143.852127,83.650925 142.099594,83.199638 140.791290,83.267754 
	C140.891098,81.973602 140.478073,80.040947 141.170578,79.484764 
	C147.586517,74.331711 154.183746,69.403648 160.749619,64.438385 
	C162.882278,62.825623 173.076263,64.176231 174.207092,66.449074 
	C174.610794,67.260483 173.577179,68.787018 172.805862,70.039574 
z"/>
<path fill="#F6F6F6" opacity="1.000000" stroke="none" 
	d="
M132.226913,154.995453 
	C132.520844,161.090500 132.880966,166.685486 133.045959,172.286224 
	C133.074692,173.261871 132.509583,174.518005 131.788071,175.162262 
	C131.289398,175.607574 129.570679,175.578979 129.241241,175.135345 
	C128.557770,174.214951 128.119904,172.874023 128.132278,171.711853 
	C128.258484,159.862930 128.468872,148.014572 128.739517,136.167984 
	C128.769165,134.870773 129.009766,133.336258 129.758759,132.393402 
	C130.171692,131.873611 132.566086,131.988968 132.808212,132.462173 
	C133.362396,133.545242 133.276855,135.030365 133.215118,136.341095 
	C132.929901,142.395264 132.563934,148.445633 132.226913,154.995453 
z"/>
<path fill="#F9F9F9" opacity="1.000000" stroke="none" 
	d="
M217.540192,151.536392 
	C217.154495,149.087402 217.020401,146.883026 216.999084,144.677567 
	C216.893341,133.737823 216.744431,122.797112 216.841476,111.858795 
	C216.851395,110.739616 218.398010,109.634064 219.231552,108.522186 
	C219.925659,109.474564 221.246429,110.448273 221.214859,111.375946 
	C220.958786,118.899063 220.139526,126.412987 220.126266,133.930847 
	C220.117508,138.898697 221.368851,143.861267 221.535004,148.843582 
	C221.566254,149.780487 219.137421,150.799438 217.540192,151.536392 
z"/>
<path fill="#E5E5E5" opacity="1.000000" stroke="none" 
	d="
M158.197174,233.813995 
	C158.200897,232.347885 158.203339,231.352097 158.203705,230.356308 
	C158.208160,218.219162 158.208038,218.179764 169.822678,218.165100 
	C170.767273,218.163910 171.995636,219.010910 172.558731,219.830322 
	C172.931396,220.372604 172.657364,221.924301 172.121994,222.387802 
	C171.392456,223.019379 170.093262,223.387589 169.117706,223.260284 
	C166.917267,222.973099 164.765594,222.312210 162.150497,221.699432 
	C162.150497,226.783142 162.143127,231.186554 162.154617,235.589920 
	C162.158478,237.068497 162.373032,238.576233 162.115860,240.002991 
	C162.057968,240.324112 159.731430,240.683884 159.637329,240.479309 
	C158.951538,238.988556 158.532425,237.367752 158.114777,235.765671 
	C157.995956,235.309830 158.160400,234.780151 158.197174,233.813995 
z"/>
<path fill="#F4F4F4" opacity="1.000000" stroke="none" 
	d="
M184.883453,199.925339 
	C174.419876,199.925339 164.437943,199.925339 154.212860,199.925339 
	C154.212860,199.191696 154.212860,197.777863 154.212860,196.607437 
	C167.379929,196.607437 180.464691,196.607437 194.272659,196.607437 
	C191.972214,201.927933 188.096008,199.093979 184.883453,199.925339 
z"/>
<path fill="#F6F6F6" opacity="1.000000" stroke="none" 
	d="
M149.324036,64.044502 
	C148.768723,64.770256 148.457626,65.174667 148.084732,65.761124 
	C143.472900,64.199753 139.799377,65.755402 136.708511,69.097572 
	C132.692291,73.440353 125.860268,75.076630 124.376984,81.958290 
	C124.274208,82.435104 122.166122,82.479691 120.990570,82.725281 
	C120.909996,81.441628 120.245277,79.507736 120.838844,78.974487 
	C127.061905,73.383896 133.343414,67.835701 139.916428,62.667068 
	C143.122894,60.145702 148.191849,61.075993 149.324036,64.044502 
z"/>
<path fill="#FCFCFC" opacity="1.000000" stroke="none" 
	d="
M187.856232,103.981354 
	C188.848694,104.753807 189.902145,105.475182 189.914185,106.213547 
	C190.070755,115.814445 190.139984,125.418465 190.030090,135.019379 
	C190.019348,135.957657 188.676117,136.880692 187.951401,137.810791 
	C187.126907,136.650269 185.599442,135.494476 185.591629,134.328491 
	C185.539597,126.580170 185.847290,118.830093 185.941360,111.079407 
	C185.954681,109.981995 185.023132,108.769005 185.274323,107.803436 
	C185.633896,106.421349 186.680145,105.217903 187.856232,103.981354 
z"/>
<path fill="#FEFEFE" opacity="1.000000" stroke="none" 
	d="
M198.963409,101.996063 
	C197.412399,100.808586 196.315231,99.618500 195.218048,98.428413 
	C195.545212,98.024178 195.872391,97.619942 196.199554,97.215706 
	C202.195435,97.560692 208.191315,97.905678 214.879074,98.290474 
	C212.413849,94.963715 210.397018,92.242058 208.380203,89.520401 
	C209.208221,88.794525 210.036255,88.068649 210.864288,87.342773 
	C213.335831,90.410591 215.991028,93.351608 218.223053,96.584778 
	C220.143066,99.365967 218.835785,100.829529 215.662308,101.005806 
	C210.245712,101.306702 204.832092,101.661377 198.963409,101.996063 
z"/>
<path fill="#F7F7F7" opacity="1.000000" stroke="none" 
	d="
M185.827423,168.963760 
	C188.556244,169.864944 190.849701,170.763763 194.040756,172.014328 
	C190.415054,172.014328 187.542999,171.732788 184.748260,172.077682 
	C180.093521,172.652130 179.115540,170.208862 179.015610,166.295303 
	C178.868622,160.538788 178.294891,154.791611 178.219528,149.036316 
	C178.206467,148.038605 179.758774,147.020401 180.588043,146.011658 
	C181.383240,147.042053 182.863480,148.075363 182.859146,149.102402 
	C182.836151,154.554367 182.491058,160.007904 182.150970,165.454239 
	C181.999481,167.880280 182.580124,169.389359 185.827423,168.963760 
z"/>
<path fill="#E8E8E8" opacity="1.000000" stroke="none" 
	d="
M189.751129,140.127884 
	C191.141037,140.953705 192.145355,141.895096 193.149673,142.836472 
	C192.153412,143.542191 191.194138,144.783676 190.154099,144.855515 
	C186.711060,145.093323 183.209625,145.152344 179.795486,144.741104 
	C178.752441,144.615479 177.918610,142.752930 176.988968,141.685822 
	C178.311569,141.185806 179.609390,140.356323 180.961929,140.254578 
	C183.747650,140.045013 186.562607,140.224213 189.751129,140.127884 
z"/>
<path fill="#F6F6F6" opacity="1.000000" stroke="none" 
	d="
M187.298431,147.172791 
	C187.943054,152.735458 188.180557,158.159683 188.418060,163.583908 
	C188.954041,163.769348 189.490005,163.954773 190.025986,164.140198 
	C188.693970,164.732056 187.361969,165.323914 186.029953,165.915771 
	C185.560547,164.642838 184.737946,163.384033 184.686356,162.094391 
	C184.515045,157.811722 184.510513,153.512482 184.722946,149.233551 
	C184.761032,148.466492 186.134430,147.765732 187.298431,147.172791 
z"/>
<path fill="#F4F4F4" opacity="1.000000" stroke="none" 
	d="
M105.215637,168.106689 
	C105.492317,171.720016 105.662041,175.102127 105.339539,178.436646 
	C105.258347,179.276154 103.600975,179.963242 102.667946,180.720367 
	C102.059372,179.547043 101.088432,178.422302 100.923195,177.189560 
	C100.642685,175.096832 100.949661,172.932877 100.865112,170.804596 
	C100.741814,167.700821 101.704681,166.268173 105.215637,168.106689 
z"/>
<path fill="#F4F4F4" opacity="1.000000" stroke="none" 
	d="
M156.370377,58.076706 
	C156.024734,58.338295 156.162903,58.246918 156.179459,58.207657 
	C152.461273,58.438202 148.727341,58.831238 144.991013,58.855446 
	C144.374649,58.859440 143.048874,56.913746 143.269836,56.450413 
	C143.744537,55.455109 144.953049,54.286812 145.969940,54.174526 
	C148.648941,53.878723 151.457321,53.761696 154.065720,54.296921 
	C155.144379,54.518250 155.844009,56.586720 156.370377,58.076706 
z"/>
<path fill="#F6F6F6" opacity="1.000000" stroke="none" 
	d="
M203.875824,139.740128 
	C204.586609,136.592819 202.172607,132.966125 206.617279,130.827164 
	C206.617279,135.545227 206.617279,139.867676 206.617279,144.190140 
	C206.345306,144.343292 206.073334,144.496445 205.801361,144.649612 
	C205.159637,143.160263 204.517899,141.670929 203.875824,139.740128 
z"/>
<path fill="#F7F7F7" opacity="1.000000" stroke="none" 
	d="
M194.987015,137.090790 
	C195.432495,135.433456 195.877777,134.228622 196.323059,133.023773 
	C196.889648,134.143906 197.555511,135.226318 197.998978,136.393250 
	C198.624161,138.038269 199.084625,139.745880 199.819870,142.073730 
	C198.452194,142.439941 197.015564,142.824615 194.986816,143.367828 
	C194.986816,141.062134 194.986816,139.302704 194.987015,137.090790 
z"/>
<path fill="#F4F3F3" opacity="1.000000" stroke="none" 
	d="
M209.871857,172.562698 
	C208.324997,172.161743 207.039902,172.008926 205.754807,171.856110 
	C205.675568,171.556000 205.596313,171.255875 205.517075,170.955765 
	C208.190781,170.230881 210.864471,169.506012 213.538177,168.781128 
	C213.779877,169.797943 214.021591,170.814743 214.263306,171.831543 
	C212.886749,172.157974 211.510178,172.484406 209.871857,172.562698 
z"/>
<path fill="#312F2F" opacity="1.000000" stroke="none" 
	d="
M126.175293,107.986931 
	C131.074066,109.061409 135.564743,110.108345 140.057632,111.145706 
	C143.273636,111.888245 145.117081,113.432961 143.338501,117.466362 
	C137.242386,115.918655 130.993332,114.570808 124.948524,112.597328 
	C123.730232,112.199593 123.286392,109.429710 122.078247,106.901161 
	C124.208595,107.509766 124.988358,107.732529 126.175293,107.986931 
z"/>
<path fill="#2C2929" opacity="1.000000" stroke="none" 
	d="
M108.973053,115.187180 
	C108.551590,110.949554 108.551590,106.771698 108.551590,101.982590 
	C112.183372,102.091049 114.359917,104.435501 115.004593,107.657013 
	C115.834465,111.803986 113.895943,114.659325 108.973053,115.187180 
z"/>
<path fill="#413F3F" opacity="1.000000" stroke="none" 
	d="
M117.379440,111.982330 
	C119.493454,106.392006 115.252785,103.338608 111.551758,98.832924 
	C118.785095,101.752380 121.073555,105.261429 120.408691,110.961250 
	C119.942078,114.961411 116.967941,116.641533 114.158752,118.388420 
	C113.803131,118.071129 113.447510,117.753838 113.091881,117.436546 
	C114.448799,115.724068 115.805710,114.011597 117.379440,111.982330 
z"/>
<path fill="#3B3535" opacity="1.000000" stroke="none" 
	d="
M99.641273,104.655182 
	C100.806625,103.475105 101.971977,102.295036 103.137329,101.114967 
	C104.258629,102.520065 105.949242,103.777580 106.361130,105.366570 
	C106.910583,107.486237 106.843727,109.946312 106.368233,112.112358 
	C105.456985,116.263412 103.693611,116.657440 99.999100,113.434731 
	C100.198967,112.796974 100.318108,112.677422 100.769531,112.669205 
	C102.034904,111.404686 103.810356,109.930946 103.665031,108.680420 
	C103.518616,107.420456 101.464050,106.382233 100.094650,105.098770 
	C99.943741,104.950684 99.641273,104.655182 99.641273,104.655182 
z"/>
<path fill="#413F3F" opacity="1.000000" stroke="none" 
	d="
M105.729454,96.212219 
	C106.552330,97.444382 107.129951,98.411797 107.707573,99.379204 
	C107.537560,99.684898 107.367546,99.990593 107.197533,100.296280 
	C105.183380,99.356674 102.930206,98.703697 101.280067,97.327583 
	C100.672966,96.821304 101.490265,94.606987 101.813812,91.836151 
	C103.658157,93.902061 104.571175,94.924767 105.729454,96.212219 
z"/>
<path fill="#3B3535" opacity="1.000000" stroke="none" 
	d="
M99.901001,113.095726 
	C99.520592,110.613213 99.318993,107.951492 99.379333,104.972473 
	C99.641273,104.655182 99.943741,104.950684 100.022064,105.504456 
	C100.212669,108.224770 100.324951,110.391327 100.437241,112.557877 
	C100.318108,112.677422 100.198967,112.796974 99.901001,113.095726 
z"/>
<path fill="#2F2D2D" opacity="1.000000" stroke="none" 
	d="
M162.616547,191.378967 
	C162.295029,186.279999 162.295029,181.520844 162.295029,176.381561 
	C167.556870,176.381561 172.741974,176.381561 178.169006,176.381561 
	C178.387360,181.361938 178.602798,186.275787 178.841431,191.718796 
	C173.339539,191.718796 168.138794,191.718796 162.616547,191.378967 
z"/>
<path fill="#302727" opacity="1.000000" stroke="none" 
	d="
M196.826447,89.095520 
	C196.360336,86.882858 196.231033,84.856682 196.101746,82.830505 
	C197.565033,82.977631 199.443542,82.627289 200.378372,83.407547 
	C201.373520,84.238174 202.271042,86.961945 201.808807,87.408928 
	C200.696579,88.484459 198.764572,88.712234 196.826447,89.095520 
z"/>
<path fill="#302727" opacity="1.000000" stroke="none" 
	d="
M200.025513,78.714600 
	C198.800293,78.255898 197.532089,77.956993 197.185715,77.223053 
	C196.620728,76.025864 196.184570,74.363930 196.611282,73.249176 
	C196.881485,72.543221 199.167694,71.850288 199.916962,72.273033 
	C200.915985,72.836716 201.675781,74.444756 201.825027,75.689728 
	C201.936035,76.615768 200.913925,77.677650 200.025513,78.714600 
z"/>
<path fill="#AE1A1F" opacity="1.000000" stroke="none" 
	d="
M100.769531,112.669205 
	C100.324951,110.391327 100.212669,108.224770 100.172966,105.652534 
	C101.464050,106.382233 103.518616,107.420456 103.665031,108.680420 
	C103.810356,109.930946 102.034904,111.404686 100.769531,112.669205 
z"/>
</svg>